<svg width="281" height="88" viewBox="0 0 281 88" fill="none" xmlns="http://www.w3.org/2000/svg">
<path d="M112.14 68.881V73.2209H116.873V74.615H112.14V79.0811H117.429V80.4751H110.443V67.4806H117.429V68.8747H112.14V68.881ZM124.97 70.0922C126.213 70.0922 127.217 70.4643 127.987 71.215C128.756 71.9656 129.141 73.0506 129.141 74.4636V80.4751H127.463V74.7033C127.463 73.6877 127.21 72.9055 126.699 72.3693C126.188 71.8269 125.494 71.5619 124.61 71.5619C123.714 71.5619 123.007 71.8395 122.477 72.4009C121.947 72.956 121.688 73.7697 121.688 74.8421V80.4814H119.991V70.2814H121.688V71.7322C122.023 71.2087 122.477 70.805 123.058 70.5211C123.632 70.2372 124.27 70.0922 124.97 70.0922ZM136.127 70.1111C137.011 70.1111 137.781 70.3003 138.443 70.6851C139.106 71.0699 139.598 71.5556 139.926 72.1359V70.2751H141.643V80.7022C141.643 81.6358 141.441 82.4622 141.05 83.1876C140.652 83.913 140.084 84.4807 139.346 84.8907C138.607 85.3008 137.749 85.5026 136.765 85.5026C135.427 85.5026 134.303 85.1872 133.414 84.5564C132.518 83.9256 131.994 83.0614 131.83 81.9701H133.508C133.698 82.5883 134.083 83.0866 134.663 83.4714C135.244 83.8499 135.951 84.0392 136.765 84.0392C137.699 84.0392 138.456 83.749 139.049 83.1623C139.636 82.582 139.933 81.762 139.933 80.7022V78.5638C139.598 79.1568 139.1 79.6551 138.443 80.0525C137.787 80.4499 137.017 80.6455 136.134 80.6455C135.225 80.6455 134.404 80.4247 133.666 79.9768C132.928 79.5289 132.347 78.9044 131.924 78.097C131.502 77.2896 131.293 76.3749 131.293 75.3404C131.293 74.2996 131.502 73.3849 131.924 72.5964C132.347 71.8079 132.928 71.1961 133.666 70.7608C134.404 70.3256 135.225 70.1111 136.134 70.1111H136.127ZM139.926 75.3593C139.926 74.5898 139.769 73.9211 139.459 73.3471C139.15 72.7731 138.727 72.3378 138.203 72.035C137.673 71.7322 137.093 71.5808 136.462 71.5808C135.831 71.5808 135.25 71.7322 134.733 72.0287C134.209 72.3252 133.792 72.7604 133.483 73.3345C133.174 73.9085 133.016 74.5771 133.016 75.3467C133.016 76.1289 133.174 76.8102 133.483 77.3842C133.792 77.9582 134.209 78.3998 134.733 78.7089C135.256 79.0117 135.831 79.1631 136.462 79.1631C137.093 79.1631 137.673 79.0117 138.203 78.7089C138.734 78.4061 139.15 77.9645 139.459 77.3842C139.769 76.8039 139.926 76.1352 139.926 75.3656V75.3593ZM146.205 66.7048V80.4814H144.508V66.7048H146.205ZM149.967 68.6224C149.645 68.6224 149.373 68.5088 149.146 68.2881C148.925 68.0673 148.812 67.7897 148.812 67.468C148.812 67.1463 148.925 66.8751 149.146 66.648C149.367 66.4272 149.645 66.3137 149.967 66.3137C150.276 66.3137 150.541 66.4272 150.755 66.648C150.976 66.8688 151.084 67.1463 151.084 67.468C151.084 67.7897 150.976 68.061 150.755 68.2881C150.541 68.5088 150.276 68.6224 149.967 68.6224ZM150.787 70.2814V80.4814H149.089V70.2814H150.787ZM157.287 80.6518C156.504 80.6518 155.804 80.5193 155.185 80.248C154.567 79.9831 154.075 79.6109 153.715 79.1315C153.355 78.6521 153.153 78.1033 153.122 77.4851H154.87C154.92 77.9961 155.16 78.4124 155.589 78.7341C156.018 79.0558 156.58 79.2198 157.274 79.2198C157.918 79.2198 158.429 79.0748 158.801 78.7909C159.174 78.507 159.363 78.1475 159.363 77.7122C159.363 77.2644 159.161 76.9363 158.77 76.7156C158.372 76.4948 157.76 76.2866 156.927 76.0721C156.17 75.8766 155.551 75.6747 155.072 75.4666C154.592 75.2647 154.182 74.9556 153.841 74.5519C153.501 74.1482 153.33 73.6183 153.33 72.9623C153.33 72.4387 153.488 71.9656 153.797 71.5304C154.106 71.0951 154.548 70.7545 155.122 70.4959C155.697 70.2435 156.347 70.1174 157.079 70.1174C158.208 70.1174 159.123 70.4012 159.817 70.9753C160.512 71.543 160.884 72.3252 160.934 73.3219H159.237C159.199 72.7857 158.984 72.3567 158.593 72.035C158.202 71.7133 157.678 71.5493 157.022 71.5493C156.416 71.5493 155.93 71.6818 155.57 71.9404C155.211 72.199 155.028 72.5397 155.028 72.9623C155.028 73.2966 155.135 73.5742 155.356 73.7886C155.577 74.0031 155.848 74.1797 156.176 74.3122C156.504 74.4447 156.959 74.5898 157.546 74.7475C158.278 74.9493 158.871 75.1449 159.332 75.3341C159.792 75.5234 160.184 75.8135 160.512 76.1983C160.84 76.5831 161.01 77.0877 161.023 77.7059C161.023 78.261 160.865 78.7657 160.556 79.2135C160.247 79.6614 159.805 80.0083 159.243 80.267C158.675 80.5193 158.032 80.6455 157.3 80.6455L157.287 80.6518ZM168.463 70.0985C169.233 70.0985 169.927 70.2625 170.552 70.5905C171.17 70.9185 171.663 71.4105 172.016 72.0729C172.369 72.7289 172.546 73.53 172.546 74.4762V80.4878H170.867V74.7159C170.867 73.7003 170.615 72.9181 170.104 72.382C169.593 71.8395 168.899 71.5745 168.015 71.5745C167.119 71.5745 166.412 71.8521 165.882 72.4135C165.352 72.9686 165.093 73.7823 165.093 74.8547V80.4941H163.396V66.7174H165.093V71.7449C165.428 71.2213 165.888 70.8176 166.482 70.5337C167.068 70.2499 167.731 70.1048 168.463 70.1048V70.0985ZM187.963 77.5987H182.302L181.261 80.4814H179.475L184.17 67.5816H186.127L190.803 80.4814H189.017L187.976 77.5987H187.963ZM187.477 76.2235L185.13 69.6695L182.782 76.2235H187.477ZM192.21 75.3656C192.21 74.3122 192.418 73.3912 192.841 72.6027C193.264 71.8142 193.851 71.2024 194.602 70.7671C195.353 70.3319 196.211 70.1174 197.183 70.1174C198.439 70.1174 199.467 70.4202 200.281 71.032C201.096 71.6376 201.632 72.4829 201.891 73.5616H200.067C199.89 72.9434 199.556 72.4513 199.051 72.0918C198.546 71.7322 197.921 71.5493 197.177 71.5493C196.205 71.5493 195.429 71.8836 194.829 72.546C194.236 73.2083 193.933 74.1482 193.933 75.3656C193.933 76.5957 194.23 77.5419 194.829 78.2169C195.422 78.8855 196.205 79.2198 197.177 79.2198C197.921 79.2198 198.54 79.0432 199.038 78.6963C199.537 78.3493 199.878 77.851 200.061 77.2076H201.884C201.613 78.2484 201.064 79.0874 200.244 79.7119C199.423 80.3364 198.401 80.6518 197.17 80.6518C196.198 80.6518 195.34 80.431 194.589 80.002C193.838 79.5668 193.251 78.9549 192.829 78.1601C192.406 77.3653 192.197 76.438 192.197 75.3656H192.21ZM203.512 75.3467C203.512 74.3059 203.721 73.3912 204.144 72.6027C204.566 71.8142 205.147 71.2024 205.885 70.7671C206.624 70.3319 207.444 70.1174 208.353 70.1174C209.249 70.1174 210.025 70.3066 210.681 70.6914C211.338 71.0762 211.83 71.5619 212.152 72.1423V70.2814H213.868V80.4814H212.152V78.5827C211.817 79.1757 211.319 79.674 210.65 80.0651C209.987 80.4562 209.211 80.6518 208.334 80.6518C207.425 80.6518 206.611 80.431 205.873 79.9831C205.141 79.5352 204.56 78.9107 204.144 78.1033C203.721 77.2959 203.512 76.3812 203.512 75.3467ZM212.152 75.3656C212.152 74.5961 211.994 73.9274 211.685 73.3534C211.376 72.7794 210.953 72.3441 210.429 72.0413C209.899 71.7385 209.318 71.5872 208.687 71.5872C208.056 71.5872 207.476 71.7385 206.958 72.035C206.434 72.3315 206.018 72.7667 205.709 73.3408C205.399 73.9148 205.242 74.5835 205.242 75.353C205.242 76.1352 205.399 76.8165 205.709 77.3905C206.018 77.9645 206.434 78.4061 206.958 78.7152C207.482 79.018 208.056 79.1694 208.687 79.1694C209.318 79.1694 209.899 79.018 210.429 78.7152C210.959 78.4124 211.376 77.9709 211.685 77.3905C211.994 76.8102 212.152 76.1415 212.152 75.372V75.3656ZM216.102 75.3467C216.102 74.3059 216.311 73.3912 216.733 72.6027C217.156 71.8142 217.737 71.2024 218.475 70.7671C219.213 70.3319 220.04 70.1174 220.961 70.1174C221.757 70.1174 222.495 70.3003 223.177 70.6662C223.858 71.032 224.382 71.5115 224.742 72.1107V66.7111H226.458V80.4878H224.742V78.5701C224.407 79.1757 223.909 79.6803 223.252 80.0714C222.596 80.4625 221.826 80.6581 220.943 80.6581C220.034 80.6581 219.213 80.4373 218.475 79.9894C217.737 79.5415 217.156 78.9171 216.733 78.1096C216.311 77.3022 216.102 76.3875 216.102 75.353V75.3467ZM224.742 75.3656C224.742 74.5961 224.584 73.9274 224.275 73.3534C223.965 72.7794 223.543 72.3441 223.019 72.0413C222.489 71.7385 221.908 71.5872 221.277 71.5872C220.646 71.5872 220.065 71.7385 219.548 72.035C219.024 72.3315 218.608 72.7667 218.298 73.3408C217.989 73.9148 217.831 74.5835 217.831 75.353C217.831 76.1352 217.989 76.8165 218.298 77.3905C218.608 77.9645 219.024 78.4061 219.548 78.7152C220.072 79.018 220.646 79.1694 221.277 79.1694C221.908 79.1694 222.489 79.018 223.019 78.7152C223.549 78.4124 223.965 77.9709 224.275 77.3905C224.584 76.8102 224.742 76.1415 224.742 75.372V75.3656ZM238.638 74.9935C238.638 75.3152 238.619 75.6558 238.581 76.0154H230.421C230.484 77.0183 230.825 77.8068 231.456 78.3683C232.081 78.936 232.844 79.2135 233.741 79.2135C234.473 79.2135 235.085 79.0432 235.577 78.7026C236.069 78.362 236.41 77.9078 236.612 77.3337H238.436C238.164 78.3115 237.615 79.1126 236.795 79.7245C235.975 80.3364 234.959 80.6455 233.741 80.6455C232.775 80.6455 231.904 80.4247 231.141 79.9957C230.377 79.5605 229.777 78.9423 229.342 78.1412C228.907 77.3401 228.692 76.4128 228.692 75.3593C228.692 74.3059 228.9 73.3786 229.323 72.5838C229.746 71.789 230.339 71.1771 231.103 70.7482C231.866 70.3192 232.743 70.1048 233.741 70.1048C234.706 70.1048 235.564 70.3129 236.309 70.7356C237.054 71.1582 237.628 71.7385 238.032 72.4766C238.436 73.2146 238.638 74.0473 238.638 74.9809V74.9935ZM236.89 74.6402C236.89 73.9968 236.744 73.4417 236.46 72.9749C236.176 72.5081 235.785 72.1549 235.299 71.9152C234.807 71.6755 234.264 71.5493 233.671 71.5493C232.813 71.5493 232.087 71.8205 231.481 72.3693C230.882 72.9181 230.535 73.6751 230.446 74.6402H236.89ZM253.146 70.0985C253.941 70.0985 254.648 70.2625 255.266 70.5905C255.885 70.9185 256.377 71.4105 256.737 72.0729C257.096 72.7289 257.279 73.53 257.279 74.4762V80.4878H255.601V74.7159C255.601 73.7003 255.348 72.9181 254.843 72.382C254.339 71.8395 253.663 71.5745 252.805 71.5745C251.922 71.5745 251.221 71.8584 250.697 72.4198C250.174 72.9875 249.915 73.8013 249.915 74.8673V80.4878H248.236V74.7159C248.236 73.7003 247.984 72.9181 247.479 72.382C246.974 71.8395 246.299 71.5745 245.441 71.5745C244.557 71.5745 243.857 71.8584 243.333 72.4198C242.809 72.9875 242.55 73.8013 242.55 74.8673V80.4878H240.853V70.2877H242.55V71.7575C242.885 71.2213 243.333 70.8176 243.901 70.5274C244.469 70.2435 245.087 70.0985 245.775 70.0985C246.633 70.0985 247.391 70.2877 248.047 70.6725C248.703 71.0573 249.195 71.6187 249.517 72.3693C249.801 71.6502 250.275 71.0888 250.931 70.6914C251.587 70.294 252.319 70.0985 253.127 70.0985H253.146ZM268.847 70.2877L262.7 85.2944H260.952L262.965 80.3805L258.851 70.2877H260.731L263.937 78.5512L267.105 70.2877H268.853H268.847Z" fill="white"/>
<path fill-rule="evenodd" clip-rule="evenodd" d="M125.998 62.5288C123.082 62.5288 120.192 62.1819 117.352 61.5132C114.733 60.895 112.127 60.0119 109.773 58.6935C109.154 58.3466 108.908 57.5833 109.205 56.9399L111.994 50.9978C112.158 50.6508 112.423 50.4111 112.789 50.2849C113.155 50.1651 113.515 50.1903 113.856 50.3733C115.541 51.269 117.383 51.9503 119.201 52.5117C121.334 53.174 123.568 53.4516 125.796 53.4516C126.73 53.4516 128.067 53.3696 128.907 52.9028C129.437 52.6126 129.816 52.2215 130.017 51.6475C130.295 50.8653 130.39 50.0137 130.39 49.1874C130.39 48.6512 130.301 48.1213 130.106 47.623C129.923 47.1625 129.424 46.7525 129.027 46.4875C128.137 45.8883 126.799 45.453 125.777 45.1502L118.873 43.119C116.853 42.5261 114.809 41.6051 113.237 40.1732C111.887 38.9431 110.877 37.4608 110.309 35.7261C109.754 34.0418 109.514 32.2819 109.514 30.5093C109.514 27.9672 110.095 25.5134 111.634 23.4507C113.086 21.5204 115.03 20.1768 117.276 19.3189C119.718 18.3854 122.318 18.0132 124.925 18.0132C127.499 18.0132 130.081 18.2466 132.592 18.8143C134.896 19.3379 137.092 20.1579 139.136 21.3375C139.723 21.6781 139.969 22.3846 139.717 23.0154L137.414 28.7431C137.268 29.1027 137.01 29.3613 136.65 29.5001C136.29 29.6388 135.924 29.6262 135.577 29.4622C134.075 28.7494 132.504 28.188 130.901 27.7591C129.184 27.2986 127.417 27.0967 125.638 27.0967C124.249 27.0967 122.577 27.2418 121.321 27.8915C120.413 28.3583 120.223 29.2919 120.223 30.2381C120.223 31.0266 120.356 31.9034 120.924 32.4901C121.687 33.2786 123.467 33.8841 124.489 34.1932L131.362 36.2496C134.025 37.0444 136.473 38.4007 138.183 40.64C139.982 42.9929 140.518 46.0207 140.518 48.9098C140.518 51.2753 140.058 53.5714 139.004 55.7035C137.937 57.8672 136.278 59.5136 134.182 60.7058C131.721 62.1062 128.781 62.5288 125.985 62.5288H125.998ZM153.178 27.5887H143.276C142.531 27.5887 141.919 26.9769 141.919 26.2325V20.0444C141.919 19.3 142.531 18.6881 143.276 18.6881H173.908C174.653 18.6881 175.265 19.3 175.265 20.0444V26.2325C175.265 26.9769 174.653 27.5887 173.908 27.5887H164.007V60.4598C164.007 61.2041 163.395 61.816 162.65 61.816H154.534C153.79 61.816 153.178 61.2041 153.178 60.4598V27.5887ZM195.825 54.1265H181.948L179.91 60.8572C179.733 61.4375 179.222 61.8223 178.616 61.8223H170.128C169.68 61.8223 169.295 61.6267 169.03 61.2609C168.765 60.895 168.702 60.4724 168.841 60.0434L182.156 19.628C182.345 19.0603 182.85 18.6944 183.443 18.6944H194.235C194.828 18.6944 195.333 19.0603 195.522 19.6217L209.008 60.0371C209.153 60.4661 209.084 60.895 208.825 61.2546C208.56 61.6204 208.175 61.816 207.727 61.816H199.094C198.482 61.816 197.964 61.4249 197.794 60.8382L195.831 54.1202L195.825 54.1265ZM239.949 43.9769L247.206 59.9047C247.402 60.3336 247.37 60.8004 247.112 61.1978C246.853 61.5952 246.449 61.8223 245.97 61.8223H237.532C236.983 61.8223 236.516 61.5195 236.295 61.0149L229.556 45.8567H222.645V60.4661C222.645 61.2104 222.033 61.8223 221.289 61.8223H213.154C212.409 61.8223 211.797 61.2104 211.797 60.4661V20.0507C211.797 19.3063 212.409 18.6944 213.154 18.6944H230.603C233.512 18.6944 236.901 18.9972 239.526 20.3471C241.64 21.4384 243.294 23.0344 244.221 25.2422C245.13 27.4058 245.458 29.7839 245.458 32.1242C245.458 33.7769 245.313 35.4422 244.985 37.0634C244.651 38.6782 244.001 40.1669 242.991 41.4727C242.171 42.5324 241.117 43.3524 239.949 43.9832V43.9769ZM258.427 27.5887H248.525C247.781 27.5887 247.169 26.9769 247.169 26.2325V20.0444C247.169 19.3 247.781 18.6881 248.525 18.6881H279.157C279.902 18.6881 280.514 19.3 280.514 20.0444V26.2325C280.514 26.9769 279.902 27.5887 279.157 27.5887H269.256V60.4598C269.256 61.2041 268.644 61.816 267.899 61.816H259.784C259.039 61.816 258.427 61.2041 258.427 60.4598V27.5887ZM184.693 45.1187H193.168L189.016 30.8752L184.699 45.1187H184.693ZM222.652 37.3409H231.291C232.023 37.3409 233.02 37.2526 233.626 36.7921C234.15 36.3947 234.453 35.8712 234.636 35.2467C234.888 34.3572 234.976 33.411 234.976 32.4838C234.976 31.5186 234.882 30.5472 234.673 29.601C234.516 28.9071 234.219 28.27 233.702 27.7717C233.19 27.2796 232.288 27.185 231.619 27.185H222.652V37.3472V37.3409Z" fill="white"/>
<path fill-rule="evenodd" clip-rule="evenodd" d="M88.3934 47.2313C84.6891 46.3482 81.1046 46.4744 77.6401 47.4017C70.6668 49.2688 64.4192 54.2206 58.5377 58.7813C52.1576 63.7268 45.7207 68.7795 38.1353 70.8107C32.279 72.3814 28.0383 71.7695 22.7815 70.0789L27.5839 88H19.2538L0 16.1707C8.76551 21.747 14.4956 27.2854 25.6655 24.2954C32.6387 22.4283 38.8863 17.4765 44.7678 12.9158C51.1479 7.97031 57.5911 2.91759 65.1765 0.886416C70.3954 -0.513961 75.7721 -0.286873 81.3192 1.79477L85.1182 3.22038L86.9546 10.0583C69.575 4.58922 57.5911 13.5907 46.1877 22.1507C36.097 29.7266 26.0883 37.8324 12.4888 31.6632L13.7446 36.3563C27.7732 41.6109 38.0785 33.8773 48.8887 25.7526C59.9576 17.4386 71.626 8.68311 88.3745 15.3444L90.274 22.4283C72.8945 16.9592 60.9105 25.9607 49.5071 34.5207C39.4353 42.084 29.4455 50.1772 15.8966 44.0773L15.8902 44.3486L17.064 48.72C31.1053 53.9746 41.3979 46.241 52.2081 38.1226C63.2833 29.8086 74.9454 21.0468 91.6939 27.7144L93.5934 34.7983C76.2139 29.3292 64.2299 38.3307 52.8265 46.8907C42.7547 54.454 32.765 62.5472 19.216 56.4473L19.2097 56.7186L20.3834 61.09C34.4247 66.3446 44.7174 58.611 55.5275 50.4926C66.6027 42.1786 78.2648 33.4168 95.0133 40.0844L97.506 49.3824L88.3998 47.2061L88.3934 47.2313Z" fill="white"/>
</svg>
