<svg width="73" height="64" viewBox="0 0 73 64" fill="none" xmlns="http://www.w3.org/2000/svg">
<path d="M63.5984 35.1755L64.5634 35.4073L64.5675 35.3906L69.766 36.642L71.3981 37.0349L70.9664 35.4126L69.2791 29.0731L69.1502 28.5887L68.6849 28.4021C56.8273 23.6471 48.5119 29.9353 41.0963 35.543L40.9824 35.6291L40.9822 35.6292C33.7161 41.1259 27.3012 45.9028 18.6289 42.8901L18.4231 42.1179C22.5434 43.4931 26.2314 43.0391 29.6423 41.6483C33.2092 40.1938 36.4944 37.7013 39.6447 35.3111C39.8841 35.1295 40.1227 34.9484 40.3606 34.7685C48.1255 28.8972 55.8345 23.1244 67.0495 26.6793L68.7868 27.23L68.318 25.4688L67.0322 20.6389L66.9033 20.1546L66.4381 19.968C54.5804 15.2131 46.265 21.5012 38.8495 27.1089L38.7355 27.195L38.7354 27.1952C31.4693 32.6918 25.0543 37.4688 16.3821 34.456L16.1762 33.6839C20.2965 35.059 23.9846 34.605 27.3955 33.2142C30.9624 31.7597 34.2476 29.2672 37.3978 26.877C37.6372 26.6954 37.8757 26.5144 38.1136 26.3345C45.8785 20.4632 53.5875 14.6903 64.8026 18.2453L66.54 18.796L66.0711 17.0348L64.7854 12.2048L64.6564 11.7203L64.1909 11.5338C52.324 6.77962 44.001 13.077 36.5844 18.6886L36.4885 18.7611L36.4882 18.7613C29.2225 24.2619 22.7996 29.0385 14.1358 26.0265L13.9283 25.2456C18.0397 26.6166 21.7205 26.169 25.1253 24.7866C28.7029 23.3339 31.996 20.836 35.1534 18.4409C35.392 18.26 35.6297 18.0796 35.8668 17.9004C43.6317 12.0291 51.3407 6.25624 62.5558 9.81116L64.2939 10.3621L63.8242 8.60029L62.5812 3.93809L62.4489 3.44189L61.9685 3.26031L59.397 2.2883C55.4515 0.796875 51.5972 0.62778 47.8558 1.63901C42.5992 3.05702 38.1515 6.53102 33.9494 9.81316C33.8619 9.88154 33.7744 9.94983 33.6871 10.018L33.6869 10.0181C33.5984 10.0873 33.5098 10.1565 33.4211 10.2258C29.4789 13.3062 25.4982 16.4166 21.1121 17.5995C17.5629 18.5566 14.9362 18.1475 12.4774 17.0697C10.6555 16.271 8.96283 15.1318 7.0317 13.8322C6.24839 13.305 5.42584 12.7515 4.53953 12.1835L2.37143 10.7942L3.03363 13.2826L16.0662 62.2572L16.2639 63H17.0326H22.671H23.9718L23.6374 61.7429L20.8449 51.2462C23.8085 52.0301 26.5429 52.1993 30.0735 51.2455C35.3244 49.8292 39.7642 46.3612 43.9616 43.0826C44.054 43.0104 44.1463 42.9383 44.2385 42.8664L44.2386 42.8662C44.3272 42.7971 44.4158 42.7278 44.5044 42.6586C48.4467 39.5782 52.4274 36.4678 56.8135 35.2848C59.0065 34.6936 61.2628 34.6147 63.5984 35.1755Z" fill="#FEE705" stroke="#FEE705" stroke-width="2"/>
</svg>
